<svg xmlns="http://www.w3.org/2000/svg" viewBox="0 0 102 102" width="102" height="102">
    <rect class="c-0-0" x="4" y="4" width="10" height="10" rx="2" fill="#84cc16" opacity="1" />
    <rect class="c-0-1" x="16" y="4" width="10" height="10" rx="2" fill="#84cc16" opacity="1" />
    <rect class="c-0-2" x="28" y="4" width="10" height="10" rx="2" fill="#84cc16" opacity="1" />
    <rect class="c-0-3" x="40" y="4" width="10" height="10" rx="2" fill="#ec4899" opacity="1" />
    <rect class="c-0-4" x="52" y="4" width="10" height="10" rx="2" fill="#ec4899" opacity="1" />
    <rect class="c-0-5" x="64" y="4" width="10" height="10" rx="2" fill="#84cc16" opacity="1" />
    <rect class="c-0-6" x="76" y="4" width="10" height="10" rx="2" fill="#84cc16" opacity="1" />
    <rect class="c-0-7" x="88" y="4" width="10" height="10" rx="2" fill="#84cc16" opacity="1" />
    <rect class="c-1-0" x="4" y="16" width="10" height="10" rx="2" fill="#84cc16" opacity="1" />
    <rect class="c-1-2" x="28" y="16" width="10" height="10" rx="2" fill="#ec4899" opacity="1" />
    <rect class="c-1-3" x="40" y="16" width="10" height="10" rx="2" fill="#ec4899" opacity="1" />
    <rect class="c-1-4" x="52" y="16" width="10" height="10" rx="2" fill="#ec4899" opacity="1" />
    <rect class="c-1-5" x="64" y="16" width="10" height="10" rx="2" fill="#ec4899" opacity="1" />
    <rect class="c-1-7" x="88" y="16" width="10" height="10" rx="2" fill="#84cc16" opacity="1" />
    <rect class="c-2-0" x="4" y="28" width="10" height="10" rx="2" fill="#84cc16" opacity="1" />
    <rect class="c-2-1" x="16" y="28" width="10" height="10" rx="2" fill="#ec4899" opacity="1" />
    <rect class="c-2-2" x="28" y="28" width="10" height="10" rx="2" fill="#ec4899" opacity="1" />
    <rect class="c-2-5" x="64" y="28" width="10" height="10" rx="2" fill="#ec4899" opacity="1" />
    <rect class="c-2-6" x="76" y="28" width="10" height="10" rx="2" fill="#ec4899" opacity="1" />
    <rect class="c-2-7" x="88" y="28" width="10" height="10" rx="2" fill="#84cc16" opacity="1" />
    <rect class="c-3-0" x="4" y="40" width="10" height="10" rx="2" fill="#ec4899" opacity="1" />
    <rect class="c-3-1" x="16" y="40" width="10" height="10" rx="2" fill="#ec4899" opacity="1" />
    <rect class="c-3-6" x="76" y="40" width="10" height="10" rx="2" fill="#ec4899" opacity="1" />
    <rect class="c-3-7" x="88" y="40" width="10" height="10" rx="2" fill="#ec4899" opacity="1" />
    <rect class="c-4-0" x="4" y="52" width="10" height="10" rx="2" fill="#ec4899" opacity="1" />
    <rect class="c-4-1" x="16" y="52" width="10" height="10" rx="2" fill="#ec4899" opacity="1" />
    <rect class="c-4-6" x="76" y="52" width="10" height="10" rx="2" fill="#ec4899" opacity="1" />
    <rect class="c-4-7" x="88" y="52" width="10" height="10" rx="2" fill="#ec4899" opacity="1" />
    <rect class="c-5-0" x="4" y="64" width="10" height="10" rx="2" fill="#84cc16" opacity="1" />
    <rect class="c-5-1" x="16" y="64" width="10" height="10" rx="2" fill="#ec4899" opacity="1" />
    <rect class="c-5-2" x="28" y="64" width="10" height="10" rx="2" fill="#ec4899" opacity="1" />
    <rect class="c-5-5" x="64" y="64" width="10" height="10" rx="2" fill="#ec4899" opacity="1" />
    <rect class="c-5-6" x="76" y="64" width="10" height="10" rx="2" fill="#ec4899" opacity="1" />
    <rect class="c-5-7" x="88" y="64" width="10" height="10" rx="2" fill="#84cc16" opacity="1" />
    <rect class="c-6-0" x="4" y="76" width="10" height="10" rx="2" fill="#84cc16" opacity="1" />
    <rect class="c-6-2" x="28" y="76" width="10" height="10" rx="2" fill="#ec4899" opacity="1" />
    <rect class="c-6-3" x="40" y="76" width="10" height="10" rx="2" fill="#ec4899" opacity="1" />
    <rect class="c-6-4" x="52" y="76" width="10" height="10" rx="2" fill="#ec4899" opacity="1" />
    <rect class="c-6-5" x="64" y="76" width="10" height="10" rx="2" fill="#ec4899" opacity="1" />
    <rect class="c-6-7" x="88" y="76" width="10" height="10" rx="2" fill="#84cc16" opacity="1" />
    <rect class="c-7-0" x="4" y="88" width="10" height="10" rx="2" fill="#84cc16" opacity="1" />
    <rect class="c-7-1" x="16" y="88" width="10" height="10" rx="2" fill="#84cc16" opacity="1" />
    <rect class="c-7-2" x="28" y="88" width="10" height="10" rx="2" fill="#84cc16" opacity="1" />
    <rect class="c-7-3" x="40" y="88" width="10" height="10" rx="2" fill="#ec4899" opacity="1" />
    <rect class="c-7-4" x="52" y="88" width="10" height="10" rx="2" fill="#ec4899" opacity="1" />
    <rect class="c-7-5" x="64" y="88" width="10" height="10" rx="2" fill="#84cc16" opacity="1" />
    <rect class="c-7-6" x="76" y="88" width="10" height="10" rx="2" fill="#84cc16" opacity="1" />
    <rect class="c-7-7" x="88" y="88" width="10" height="10" rx="2" fill="#84cc16" opacity="1" />
</svg>
