<svg xmlns="http://www.w3.org/2000/svg" viewBox="0 0 102 102" width="102" height="102">
    <rect class="c-0-3" x="40" y="4" width="10" height="10" rx="2" fill="#06b6d4" opacity="1" />
    <rect class="c-1-3" x="40" y="16" width="10" height="10" rx="2" fill="#06b6d4" opacity="1" />
    <rect class="c-2-3" x="40" y="28" width="10" height="10" rx="2" fill="#06b6d4" opacity="1" />
    <rect class="c-3-0" x="4" y="40" width="10" height="10" rx="2" fill="#06b6d4" opacity="1" />
    <rect class="c-3-1" x="16" y="40" width="10" height="10" rx="2" fill="#06b6d4" opacity="1" />
    <rect class="c-3-2" x="28" y="40" width="10" height="10" rx="2" fill="#06b6d4" opacity="1" />
    <rect class="c-3-3" x="40" y="40" width="10" height="10" rx="2" fill="#06b6d4" opacity="1" />
    <rect class="c-3-4" x="52" y="40" width="10" height="10" rx="2" fill="#06b6d4" opacity="1" />
    <rect class="c-3-5" x="64" y="40" width="10" height="10" rx="2" fill="#06b6d4" opacity="1" />
    <rect class="c-3-6" x="76" y="40" width="10" height="10" rx="2" fill="#06b6d4" opacity="1" />
    <rect class="c-3-7" x="88" y="40" width="10" height="10" rx="2" fill="#06b6d4" opacity="1" />
    <rect class="c-4-3" x="40" y="52" width="10" height="10" rx="2" fill="#06b6d4" opacity="1" />
    <rect class="c-5-3" x="40" y="64" width="10" height="10" rx="2" fill="#06b6d4" opacity="1" />
    <rect class="c-6-3" x="40" y="76" width="10" height="10" rx="2" fill="#06b6d4" opacity="1" />
    <rect class="c-7-3" x="40" y="88" width="10" height="10" rx="2" fill="#06b6d4" opacity="1" />
</svg>
