<svg xmlns="http://www.w3.org/2000/svg" viewBox="0 0 102 78" width="102" height="78">
    <rect class="c-1-1" x="16" y="4" width="10" height="10" rx="2" fill="#ef4444" opacity="1" />
    <rect class="c-1-2" x="28" y="4" width="10" height="10" rx="2" fill="#ef4444" opacity="1" />
    <rect class="c-1-5" x="64" y="4" width="10" height="10" rx="2" fill="#ef4444" opacity="1" />
    <rect class="c-1-6" x="76" y="4" width="10" height="10" rx="2" fill="#ef4444" opacity="1" />
    <rect class="c-2-0" x="4" y="16" width="10" height="10" rx="2" fill="#ef4444" opacity="1" />
    <rect class="c-2-1" x="16" y="16" width="10" height="10" rx="2" fill="#ef4444" opacity="1" />
    <rect class="c-2-2" x="28" y="16" width="10" height="10" rx="2" fill="#ef4444" opacity="1" />
    <rect class="c-2-3" x="40" y="16" width="10" height="10" rx="2" fill="#ef4444" opacity="1" />
    <rect class="c-2-4" x="52" y="16" width="10" height="10" rx="2" fill="#ef4444" opacity="1" />
    <rect class="c-2-5" x="64" y="16" width="10" height="10" rx="2" fill="#ef4444" opacity="1" />
    <rect class="c-2-6" x="76" y="16" width="10" height="10" rx="2" fill="#ef4444" opacity="1" />
    <rect class="c-2-7" x="88" y="16" width="10" height="10" rx="2" fill="#ef4444" opacity="1" />
    <rect class="c-3-0" x="4" y="28" width="10" height="10" rx="2" fill="#ef4444" opacity="1" />
    <rect class="c-3-1" x="16" y="28" width="10" height="10" rx="2" fill="#ef4444" opacity="1" />
    <rect class="c-3-2" x="28" y="28" width="10" height="10" rx="2" fill="#ef4444" opacity="1" />
    <rect class="c-3-3" x="40" y="28" width="10" height="10" rx="2" fill="#ef4444" opacity="1" />
    <rect class="c-3-4" x="52" y="28" width="10" height="10" rx="2" fill="#ef4444" opacity="1" />
    <rect class="c-3-5" x="64" y="28" width="10" height="10" rx="2" fill="#ef4444" opacity="1" />
    <rect class="c-3-6" x="76" y="28" width="10" height="10" rx="2" fill="#ef4444" opacity="1" />
    <rect class="c-3-7" x="88" y="28" width="10" height="10" rx="2" fill="#ef4444" opacity="1" />
    <rect class="c-4-1" x="16" y="40" width="10" height="10" rx="2" fill="#ef4444" opacity="1" />
    <rect class="c-4-2" x="28" y="40" width="10" height="10" rx="2" fill="#ef4444" opacity="1" />
    <rect class="c-4-3" x="40" y="40" width="10" height="10" rx="2" fill="#ef4444" opacity="1" />
    <rect class="c-4-4" x="52" y="40" width="10" height="10" rx="2" fill="#ef4444" opacity="1" />
    <rect class="c-4-5" x="64" y="40" width="10" height="10" rx="2" fill="#ef4444" opacity="1" />
    <rect class="c-4-6" x="76" y="40" width="10" height="10" rx="2" fill="#ef4444" opacity="1" />
    <rect class="c-5-2" x="28" y="52" width="10" height="10" rx="2" fill="#ef4444" opacity="1" />
    <rect class="c-5-3" x="40" y="52" width="10" height="10" rx="2" fill="#ef4444" opacity="1" />
    <rect class="c-5-4" x="52" y="52" width="10" height="10" rx="2" fill="#ef4444" opacity="1" />
    <rect class="c-5-5" x="64" y="52" width="10" height="10" rx="2" fill="#ef4444" opacity="1" />
    <rect class="c-6-3" x="40" y="64" width="10" height="10" rx="2" fill="#ef4444" opacity="1" />
    <rect class="c-6-4" x="52" y="64" width="10" height="10" rx="2" fill="#ef4444" opacity="1" />
</svg>
